PathFileType	4	(X/Y/Z)	s07c0403.trc
DataRate	CameraRate	NumFrames	NumMarkers	Units	OrigDataRate	OrigDataStartFrame	OrigNumFrames
200	200	4	48	mm	200	1000	2000
Frame#	Time	racr			lacr			c7			jug			rlel			rdr			llel			ldr			s2			lic			ric			lasi			rasi			rpsi			lpsi			rgt			lgt			rth1			rth2			rth3			rth4			rlfc			rmfc			rsh1			rsh2			rsh3			rsh4			rlmal			rcal			rtoe			rmt5			lth1			lth2			lth4			lth3			llfc			lmfc			lsh1			lsh2			lsh3			lsh4			llmal			lcal			ltoe			lmt5			SBIKE			LBIKE			RBIKE			
		X1	Y1	Z1	X2	Y2	Z2	X3	Y3	Z3	X4	Y4	Z4	X5	Y5	Z5	X6	Y6	Z6	X7	Y7	Z7	X8	Y8	Z8	X9	Y9	Z9	X10	Y10	Z10	X11	Y11	Z11	X12	Y12	Z12	X13	Y13	Z13	X14	Y14	Z14	X15	Y15	Z15	X16	Y16	Z16	X17	Y17	Z17	X18	Y18	Z18	X19	Y19	Z19	X20	Y20	Z20	X21	Y21	Z21	X22	Y22	Z22	X23	Y23	Z23	X24	Y24	Z24	X25	Y25	Z25	X26	Y26	Z26	X27	Y27	Z27	X28	Y28	Z28	X29	Y29	Z29	X30	Y30	Z30	X31	Y31	Z31	X32	Y32	Z32	X33	Y33	Z33	X34	Y34	Z34	X35	Y35	Z35	X36	Y36	Z36	X37	Y37	Z37	X38	Y38	Z38	X39	Y39	Z39	X40	Y40	Z40	X41	Y41	Z41	X42	Y42	Z42	X43	Y43	Z43	X44	Y44	Z44	X45	Y45	Z45	X46	Y46	Z46	X47	Y47	Z47	X48	Y48	Z48	
1000	5.0000	788.988450	1392.323500	-105.718062	779.910009	1418.391873	-444.107296	789.235735	1462.239271	-272.101354	735.905554	1319.128625	-288.637509	536.090033	1156.820333	23.509354	693.188494	935.163823	-64.391719	538.246612	1165.490923	-542.301638	684.934916	927.557283	-444.921996	202.397243	1251.629699	-231.754995	343.986904	1316.826509	-374.589772	400.453747	1248.934920	-105.000791	369.929732	1236.213705	-372.606730	404.217035	1193.194051	-123.139276	242.716557	1281.144140	-178.316421	234.895497	1305.220181	-283.101549	307.855693	1125.028637	-70.741781	288.120515	1168.827966	-430.060147	332.382248	972.099095	-71.061569	350.242885	886.263366	-77.959423	327.689917	803.574648	-72.897504	383.073620	886.186391	-94.737832	316.539558	667.007943	-102.780183	288.856635	655.157276	-202.056174	232.659171	552.895938	-68.853153	202.344709	470.075364	-84.254743	139.106362	411.059545	-75.920933	214.653787	464.077739	-122.776833	55.581830	297.654076	-73.748451	-18.679645	297.310368	-98.104427	218.528641	129.366450	-129.536865	138.046256	138.388569	-54.864014	374.486460	1081.454810	-440.295821	456.763013	1050.672631	-447.406304	478.697817	1079.221933	-437.878476	514.044839	982.273919	-448.534224	637.555447	854.645673	-423.410430	631.849588	840.266337	-320.553821	521.941217	765.169361	-430.961104	451.521275	696.601528	-408.246133	376.471439	679.551558	-411.953653	467.564021	707.773823	-368.189803	253.661973	618.716230	-407.081647	173.995251	637.144389	-370.475054	370.237047	423.740124	-362.667686	295.149372	460.895188	-430.942497	-261.781806	964.751586	-237.037842	-82.852124	79.254741	-436.573449	-82.804249	79.129481	-39.046528	
1001	5.0050	790.196253	1390.374566	-109.113509	780.085104	1416.006132	-447.127742	789.994374	1460.381828	-275.086170	735.110848	1317.594715	-290.909759	536.915842	1156.796672	22.209816	693.214759	934.985271	-64.925041	536.566885	1164.317097	-543.173502	684.302648	927.482704	-445.294186	202.428540	1254.422705	-230.335723	342.730444	1319.242653	-374.172051	401.218902	1251.241714	-104.795282	368.828845	1238.708113	-372.187250	405.002726	1195.387343	-123.361049	244.543620	1281.713356	-178.670085	234.700501	1307.931647	-281.757780	309.884669	1126.504009	-70.157244	286.471642	1171.437873	-428.943432	336.774486	973.102383	-72.111367	356.050526	887.947703	-79.803511	335.229256	804.697868	-75.154468	388.919771	888.447122	-96.407288	325.118766	668.415556	-103.428897	297.858260	656.243291	-202.970689	238.259850	556.383108	-69.549624	205.949356	474.363895	-84.613139	141.205658	417.008891	-76.160483	218.426384	467.981154	-122.925097	54.779583	305.905690	-73.799299	-19.230852	309.496762	-98.547538	208.878597	128.947222	-129.393933	128.928564	142.564040	-54.831415	372.485193	1083.415146	-439.309137	454.285751	1052.332342	-446.934213	476.696543	1080.878326	-437.231753	511.571441	983.729148	-447.671845	635.533826	855.378831	-422.588561	629.449907	840.680855	-319.887408	520.321718	764.628962	-430.745668	452.216934	694.461193	-408.178262	376.684144	675.993661	-411.913128	467.305438	705.797763	-368.125115	255.306117	612.851793	-407.371965	174.235425	627.750347	-370.986838	380.415284	424.638990	-363.684893	303.098240	456.768962	-431.249492	-261.811024	964.793363	-237.117004	-82.843969	79.273897	-436.598827	-82.807080	79.199563	-39.056964	
1002	5.0100	791.207642	1388.488704	-112.348655	780.479757	1413.228648	-449.846864	790.691633	1458.486822	-278.080117	734.484716	1315.934850	-293.167135	537.531896	1157.035069	20.995850	693.489726	934.980932	-65.235247	534.999759	1163.062645	-543.937772	683.811918	927.415020	-445.641323	202.455815	1257.449334	-228.981565	341.613860	1321.603321	-373.848665	401.790385	1253.709482	-104.631602	367.622767	1241.169642	-371.949109	405.677832	1197.970974	-123.650472	245.438593	1285.256647	-177.954323	234.535358	1310.920899	-280.431376	311.879825	1128.313353	-69.624609	284.732254	1174.044929	-427.995554	341.565052	974.399038	-73.271561	362.637923	889.543083	-81.732762	343.765823	805.978898	-77.414238	395.355712	891.126520	-98.332975	335.154629	669.695864	-104.613400	308.722366	657.411669	-203.617171	245.074818	560.408336	-70.368949	210.956782	479.104680	-85.001579	144.771384	423.263651	-76.448122	223.254002	472.250896	-123.269785	55.838820	315.094650	-73.537552	-17.184058	321.880686	-99.235027	199.232378	128.568978	-129.195824	120.196543	147.157378	-54.825048	370.204453	1085.090965	-438.433185	451.757778	1053.488661	-446.194021	474.423711	1081.978923	-436.573437	508.636639	984.601922	-446.859670	632.467051	855.446323	-421.787382	626.329064	840.297714	-319.017745	517.851212	763.153020	-430.542372	452.149011	691.570414	-408.017273	376.056429	671.401508	-411.829967	459.596208	693.197463	-354.540977	255.887314	605.646464	-407.265194	173.872847	616.987479	-371.308066	389.807423	424.976861	-364.104003	310.795499	452.278950	-432.297608	-261.807851	964.857909	-237.195895	-82.864098	79.296096	-436.603779	-82.793038	79.315588	-39.066808	
1003	5.0150	791.928580	1386.804941	-115.475250	781.136432	1410.115982	-452.121224	791.485781	1456.560607	-280.614789	734.108298	1314.351542	-295.447782	538.033789	1157.378522	19.865538	693.911029	935.129872	-65.322207	533.477602	1161.814766	-544.665971	683.306914	927.315081	-445.846043	202.548511	1260.346769	-227.758299	340.625976	1323.834460	-373.539110	402.245610	1256.100559	-104.458347	366.388027	1243.505508	-371.804853	406.212233	1200.407354	-123.968611	245.811680	1287.168460	-176.531549	234.483744	1313.834617	-279.468536	313.618052	1130.036272	-69.155007	282.812563	1176.534016	-426.913673	346.740517	975.711615	-74.356893	369.790768	891.714262	-83.624753	353.090336	807.445262	-79.727637	402.183008	894.061418	-100.592869	346.135409	671.177846	-106.061806	319.808540	659.067439	-205.012768	253.017728	564.768204	-71.392138	218.799457	484.320740	-84.635524	149.743535	429.942197	-76.654730	228.895770	477.150260	-124.226000	58.556781	324.165843	-73.269491	-13.746423	334.870344	-99.645334	189.605441	128.322446	-128.963141	111.911174	152.161855	-54.835499	367.762409	1086.648936	-437.638242	450.146176	1054.183149	-444.055082	471.903366	1082.451738	-435.912384	505.200034	984.704465	-445.987231	628.531082	854.613949	-420.912863	621.526506	838.667602	-318.820319	514.556643	760.688955	-430.341657	451.383791	687.932725	-407.776465	374.703423	665.949813	-411.580740	457.079770	689.510076	-353.865777	256.169285	597.456614	-406.851351	173.079314	604.881977	-371.368368	398.657535	424.799240	-364.746319	318.014711	447.348481	-433.228448	-261.730400	964.938619	-237.288446	-82.858931	79.353771	-436.614463	-82.767301	79.404512	-39.094098	
